<?xml version="1.0" encoding="utf-8"?>
<!-- Generator: Adobe Illustrator 25.2.3, SVG Export Plug-In . SVG Version: 6.00 Build 0)  -->
<svg version="1.1" id="Ebene_1" xmlns="http://www.w3.org/2000/svg" xmlns:xlink="http://www.w3.org/1999/xlink" x="0px" y="0px"
	 viewBox="0 0 512 512" style="enable-background:new 0 0 512 512;" xml:space="preserve">
<g>
	<path d="M139.8,146.1v-44.5c0-0.2,0-0.5,0-0.7c-0.2-3.5,1-14.2,7.3-20.4c4.5-4.5,11.4-6.7,21.1-6.7c9.7,0,16.6,2.2,21.1,6.7
		c6.2,6.2,7.4,17,7.3,20.2c0,0.3,0,0.5,0,0.9v44.5H139.8z M352,265.3c-11.1,0-20.1,8.8-20.1,19.6v140.2
		c-0.5,13.2-10.6,13.2-13.8,13.2c-3.3,0-13.3,0-13.8-12.8V285.1c0-10.9-9-19.6-20.1-19.6c-11.1,0-20.1,8.8-20.1,19.6v140.3
		c-0.3,13-10.2,13-13.8,13c-3.3,0-13.3,0-13.8-12.8V102c0.2-4.8-0.2-29.9-18.2-48.5c-8.5-8.7-24.1-19-50.2-19s-41.7,10.4-50.2,19
		C99.7,72.2,99.5,97.1,99.7,102v149.2c0,10.9,9,19.6,20.1,19.6c11.1,0,20.1-8.8,20.1-19.6v-81.5h56.8v255.9
		c0.2,20.9,14.5,51.9,53.8,51.9c15.7,0,26.6-5,33.9-10.6c8.3,6.4,19.4,10.6,33.9,10.6c39.5,0,53.8-31.1,53.8-52.1V285.1
		C372,274.2,363,265.3,352,265.3"/>
	<path d="M400.4,139.5h-36.3v-35.6c0-6.6-5.4-11.8-12.1-11.8c-6.6,0-11.9,5.2-11.9,11.8v35.6h-36.3c-6.6,0-12.1,5.4-12.1,11.8
		c0,6.6,5.4,11.8,12.1,11.8H340v35.6c0,6.6,5.4,11.8,11.9,11.8c6.6,0,12.1-5.4,12.1-11.8v-35.6h36.3c6.6,0,11.9-5.2,11.9-11.8
		C412.4,144.9,407,139.5,400.4,139.5"/>
</g>
</svg>
